<svg width="16" height="16" viewBox="0 0 16 16" xmlns="http://www.w3.org/2000/svg">
	<g fill="none" stroke="currentColor" stroke-width="1.3" stroke-linecap="round">
		<path d="M 8.00 2.80 A 3.1 3.1 0 0 1 8 8"/>
		<path d="M 12.95 6.39 A 3.1 3.1 0 0 1 8 8"/>
		<path d="M 11.06 12.21 A 3.1 3.1 0 0 1 8 8"/>
		<path d="M 4.94 12.21 A 3.1 3.1 0 0 1 8 8"/>
		<path d="M 3.05 6.39 A 3.1 3.1 0 0 1 8 8"/>
	</g>
	<g fill="currentColor">
		<circle cx="8.00" cy="2.80" r="0.95"/>
		<circle cx="12.95" cy="6.39" r="0.95"/>
		<circle cx="11.06" cy="12.21" r="0.95"/>
		<circle cx="4.94" cy="12.21" r="0.95"/>
		<circle cx="3.05" cy="6.39" r="0.95"/>
		<circle cx="8" cy="8" r="1.7"/>
	</g>
</svg>
